<svg width="1737" height="288" viewBox="0 0 1737 288" fill="none" xmlns="http://www.w3.org/2000/svg">
<path d="M358.351 142.687L333.782 131.782C315.397 123.562 308.544 118.277 308.544 106.786C308.544 93.2808 319.993 85.7315 335.453 85.7315C351.833 85.7315 365.622 93.9518 376.82 110.728L406.989 87.3252C393.534 62.3287 368.63 46.1397 335.453 46.1397C294.421 46.1397 263.583 70.5491 263.583 107.708C263.583 136.731 282.972 155.437 316.065 170.283L339.381 180.852C360.023 190.415 366.959 195.028 366.959 207.862C366.959 222.709 355.51 231.936 336.122 231.936C312.472 231.936 297.095 219.773 282.972 200.313L252.469 223.38C269.183 252.655 299.351 271.444 336.122 271.444C379.411 271.444 411.92 246.112 411.92 206.268C411.92 176.994 394.871 158.876 358.435 142.687H358.351Z" fill="#1C1C1C"/>
<path d="M530.338 100.914C512.287 100.914 496.576 107.541 485.711 118.361V20.556H441.42V267.501H485.711V172.632C485.711 153.843 498.498 141.009 516.549 141.009C534.6 141.009 546.717 153.843 546.717 172.632V267.501H590.675V166.425C590.675 126.917 567.025 100.914 530.338 100.914Z" fill="#1C1C1C"/>
<path d="M693.382 100.914C664.801 100.914 641.235 112.154 622.515 134.466L645.497 161.812C659.954 146.294 671.737 139.415 688.451 139.415C708.174 139.415 718.62 149.984 718.62 168.103V175.316H677.922C640.148 175.316 616.582 193.435 616.582 222.709C616.582 251.983 638.226 271.444 672.657 271.444C693.298 271.444 710.43 263.895 722.214 251.648V267.418H762.912V170.619C762.912 125.491 735.668 100.83 693.382 100.83V100.914ZM718.62 206.604C718.62 225.393 703.828 238.898 684.524 238.898C670.4 238.898 661.208 232.02 661.208 221.115C661.208 210.211 669.398 204.675 683.855 204.675H718.62V206.688V206.604Z" fill="#1C1C1C"/>
<path d="M839.629 123.981V104.521H798.931V267.501H843.222V186.137C843.222 158.121 860.271 143.693 886.846 143.693H898.629V104.521C894.367 103.179 889.771 102.508 884.172 102.508C866.121 102.508 850.409 110.393 839.545 123.897L839.629 123.981Z" fill="#1C1C1C"/>
<path d="M992.227 100.914C945.345 99.9074 906.234 139.08 907.237 186.221C906.234 233.278 945.93 272.534 996.155 271.528C1020.14 271.528 1041.78 263.307 1061.09 247.118L1042.7 216.837C1028.58 227.742 1013.54 233.278 997.408 233.278C973.758 233.278 957.044 221.786 951.779 200.984H1065.6C1067.61 192.764 1068.53 184.543 1068.53 176.575C1068.53 134.131 1037.02 100.83 992.06 100.83L992.227 100.914ZM951.863 169.696C956.794 149.649 971.92 136.731 990.556 136.731C1009.19 136.731 1025.32 149.565 1025.66 169.696H951.863Z" fill="#1C1C1C"/>
<path d="M1257.98 20.556H1213.69V267.501H1257.98V20.556Z" fill="#1C1C1C"/>
<path d="M1104.13 77.8467V104.521H1081.15V142.099H1104.13V267.585H1148.42V142.099H1184.19V104.521H1148.42V81.7891C1148.42 63.3353 1157.95 56.4571 1177.92 56.4571C1181.85 56.4571 1186.11 56.7926 1191.04 57.4636V20.2205C1183.52 17.9557 1175.33 16.6136 1166.72 16.6136C1127.69 16.6136 1104.04 36.9967 1104.04 77.8467H1104.13Z" fill="#1C1C1C"/>
<path d="M1373.14 100.914C1325.59 99.9074 1285.22 139.415 1286.23 185.885C1285.22 232.355 1325.25 272.199 1372.8 271.192C1420.35 272.199 1461.39 232.355 1460.38 185.885C1461.39 139.415 1420.69 100.243 1373.14 100.914ZM1373.14 230.342C1348.57 230.342 1331.1 211.553 1331.1 186.221C1331.1 160.889 1348.48 141.428 1373.14 141.428C1397.79 141.428 1415.17 160.889 1415.17 186.221C1415.17 211.553 1397.12 230.342 1373.14 230.342Z" fill="#1C1C1C"/>
<path d="M1690.37 104.521L1652.68 195.448L1607.72 100.914H1592.93L1548.63 197.377L1510.28 104.521H1463.64L1539.11 271.444H1553.56L1600.45 176.658L1647.08 271.444H1661.54L1737 104.521H1690.37Z" fill="#1C1C1C"/>
<path d="M168.481 59.3929C156.698 59.7284 148.675 68.2843 148.424 81.7052C148.174 100.495 148.424 119.284 148.424 138.073C148.424 155.94 148.508 173.806 148.424 191.673C148.174 222.122 124.858 245.692 95.2741 245.525C65.6904 245.357 45.2159 221.451 42.6252 191.002C41.7059 180.098 42.6252 144.448 41.9566 135.976C41.0374 124.233 32.4297 117.774 19.8107 118.277C8.77949 118.697 1.00751 126.162 0.840374 137.234C0.589665 153.423 0.589665 169.529 0.840374 185.718C0.840374 186.64 1.25822 196.538 1.42536 200.229C3.93245 247.622 44.6309 286.794 91.597 287.968C141.321 289.227 185.613 252.738 188.872 204.171C191.63 163.154 190.46 121.884 190.376 80.6987C190.376 66.9422 181.184 58.9735 168.481 59.309V59.3929Z" fill="#1C1C1C"/>
<path d="M21.8164 103.011C33.4325 103.011 42.6252 93.4486 42.5416 81.4536C42.5416 69.2908 33.5997 60.1478 21.6492 60.0639C9.61518 59.9801 -0.246032 70.0458 0.00467718 81.9569C0.255386 93.5324 10.2002 103.011 21.7328 102.927L21.8164 103.011Z" fill="#1C1C1C"/>
<path d="M170.236 42.9522C182.187 42.9522 191.63 32.8865 191.296 20.556C190.878 8.64495 181.434 -0.246432 169.4 0.00521053C157.951 0.256853 148.257 10.3226 148.508 21.8142C148.759 33.3898 158.62 42.9522 170.153 42.9522H170.236Z" fill="#1C1C1C"/>
<path d="M93.2684 71.975C104.55 72.6461 114.412 63.7547 114.913 52.4308C115.498 40.5197 107.225 31.3767 95.5248 30.7895C83.5743 30.2862 74.3817 38.5066 73.8803 50.0821C73.3788 61.6577 81.9029 71.3879 93.2684 71.975Z" fill="#1C1C1C"/>
<path d="M73.7967 135.473C73.7967 146.21 73.7967 156.946 73.7967 167.683C73.7967 175.987 73.7967 184.292 73.7967 192.596C73.7967 198.048 74.2981 202.913 78.2259 207.107C82.6551 211.888 89.4242 214.321 95.9426 214.321C106.974 214.321 114.746 206.604 114.913 195.783C115.08 184.879 115.331 114.167 114.746 109.302C113.576 99.9074 106.055 92.0226 92.5999 92.0226C81.5687 92.0226 73.7967 99.7396 73.6295 110.56C73.6295 111.399 73.6295 112.154 73.6295 112.993C73.6295 120.458 73.6295 127.924 73.6295 135.389L73.7967 135.473Z" fill="#1C1C1C"/>
</svg>
