<svg width="2799" height="462" viewBox="0 0 2799 462" fill="none" xmlns="http://www.w3.org/2000/svg">
<path d="M577.492 228.862L537.81 211.415C508.212 198.202 497.104 189.734 497.104 171.265C497.104 149.584 515.593 137.466 540.441 137.466C566.896 137.466 589.112 150.679 607.09 177.616L655.762 140.094C634.057 99.944 593.863 74.1019 540.514 74.1019C474.449 74.1019 424.754 113.157 424.754 172.871C424.754 219.372 455.959 249.448 509.381 273.246L546.945 290.182C580.27 305.512 591.378 312.885 591.378 333.471C591.378 357.269 572.888 372.015 541.683 372.015C503.608 372.015 478.76 352.451 456.032 321.28L406.849 358.218C433.816 405.231 482.488 435.307 541.683 435.307C611.475 435.307 663.801 394.646 663.801 330.77C663.801 283.758 636.323 254.704 577.639 228.862H577.492Z" fill="#1A1A35"/>
<path d="M854.542 161.775C825.456 161.775 800.097 172.36 782.63 189.734V32.9299H711.23V429.028H782.63V276.896C782.63 246.82 803.239 226.161 832.325 226.161C861.411 226.161 880.997 246.747 880.997 276.896V429.028H951.885V266.895C951.885 203.531 913.81 161.775 854.615 161.775H854.542Z" fill="#1A1A35"/>
<path d="M1117.27 161.775C1071.3 161.775 1033.22 179.733 1003.04 215.649L1040.09 259.449C1063.33 234.629 1082.41 223.533 1109.37 223.533C1141.09 223.533 1158.05 240.469 1158.05 269.45V281.057H1092.49C1031.69 281.057 993.615 310.111 993.615 357.123C993.615 404.135 1028.55 435.306 1084.02 435.306C1117.34 435.306 1144.82 423.188 1163.82 403.624V428.955H1229.37V273.684C1229.37 201.341 1185.52 161.702 1117.27 161.702V161.775ZM1157.97 331.354C1157.97 361.43 1134.22 383.111 1103.02 383.111C1080.29 383.111 1065.45 372.015 1065.45 354.568C1065.45 337.121 1078.68 328.142 1101.92 328.142H1157.97V331.354Z" fill="#1A1A35"/>
<path d="M1353.1 198.786V167.615H1287.54V429.029H1358.94V298.577C1358.94 253.682 1386.42 230.468 1429.25 230.468H1448.25V167.615C1441.38 165.498 1434 164.476 1425.01 164.476C1395.92 164.476 1370.56 177.178 1353.1 198.786Z" fill="#1A1A35"/>
<path d="M1598.94 161.775C1523.3 160.169 1460.45 223.022 1461.99 298.577C1460.38 374.132 1524.4 436.913 1605.23 435.38C1643.81 435.38 1678.75 422.167 1709.95 396.324L1680.35 347.706C1657.63 365.153 1633.29 374.132 1607.42 374.132C1569.34 374.132 1542.38 355.663 1533.9 322.375H1717.41C1720.55 309.162 1722.16 295.949 1722.16 283.32C1722.16 215.211 1671.44 161.848 1598.94 161.848V161.775ZM1533.9 272.151C1541.87 239.958 1566.13 219.372 1596.31 219.372C1626.49 219.372 1652.36 239.958 1652.88 272.151H1533.9Z" fill="#1A1A35"/>
<path d="M2027.19 32.9299H1955.79V429.028H2027.19V32.9299Z" fill="#1A1A35"/>
<path d="M1779.16 124.837V167.615H1742.18V227.84H1779.16V429.029H1850.56V227.84H1908.22V167.615H1850.56V131.188C1850.56 101.623 1865.91 90.527 1898.13 90.527C1904.49 90.527 1911.36 91.038 1919.25 92.133V32.4189C1907.12 28.6959 1893.9 26.5789 1880.16 26.5789C1817.23 26.5789 1779.16 59.3559 1779.16 124.837Z" fill="#1A1A35"/>
<path d="M2212.67 161.775C2136.01 160.169 2070.97 223.533 2072.58 298.066C2070.97 372.526 2135.5 436.401 2212.16 434.868C2288.82 436.474 2354.89 372.526 2353.35 298.066C2354.96 223.606 2289.41 160.753 2212.75 161.775H2212.67ZM2212.67 369.387C2172.99 369.387 2145 339.311 2145 298.65C2145 257.989 2173.06 226.818 2212.67 226.818C2252.28 226.818 2280.35 257.989 2280.35 298.65C2280.35 339.311 2251.26 369.387 2212.67 369.387Z" fill="#1A1A35"/>
<path d="M2723.95 167.615L2663.14 313.396L2590.72 161.775H2566.9L2495.57 316.535L2433.67 167.615H2358.62L2480.22 435.379H2503.46L2579.1 283.247L2654.15 435.379H2677.39L2799 167.615H2723.95Z" fill="#1A1A35"/>
<path d="M271.504 95.199C252.43 95.71 239.567 109.507 239.275 130.969C238.837 161.118 239.202 191.194 239.202 221.343H239.129C239.129 250.032 239.275 278.648 239.129 307.337C238.764 356.247 201.2 394.061 153.478 393.769C105.903 393.477 72.8703 355.225 68.7047 306.388C67.17 288.868 68.7047 231.709 67.6815 218.131C66.2199 199.37 52.3346 188.931 32.0182 189.734C14.2595 190.464 1.76274 202.363 1.47042 220.175C1.03193 246.09 1.03193 272.005 1.47042 297.92C1.47042 299.38 2.12814 315.221 2.49355 321.207C6.58607 397.2 72.1395 460.054 147.778 461.952C227.948 463.923 299.274 405.45 304.536 327.558C308.994 261.785 307.094 195.574 306.948 129.509C306.948 107.463 292.039 94.688 271.723 95.199H271.504Z" fill="#1A1A35"/>
<path d="M35.0875 165.133C53.8693 164.987 68.5585 149.73 68.5585 130.531C68.5585 111.04 54.1616 96.367 34.9414 96.294C15.575 96.221 -0.429683 112.354 0.00880094 131.48C0.447285 150.022 16.3789 165.279 35.0875 165.133Z" fill="#1A1A35"/>
<path d="M274.354 68.8459C293.574 68.8459 308.775 52.6399 308.263 32.9299C307.679 13.9499 292.405 -0.358171 273.038 0.00682908C254.549 0.37183 238.983 16.5779 239.421 34.9739C239.86 53.5159 255.791 68.9189 274.354 68.8459Z" fill="#1A1A35"/>
<path d="M150.336 115.42C168.606 116.442 184.318 102.28 185.268 84.03C186.218 64.977 172.918 50.2309 154.063 49.3549C134.843 48.4789 119.934 61.6919 119.13 80.307C118.326 98.922 132.139 114.398 150.336 115.42Z" fill="#1A1A35"/>
<path d="M118.911 217.182C118.911 234.41 118.911 251.565 118.984 268.793C118.984 282.152 118.984 295.438 118.984 308.797C118.984 317.484 119.861 325.295 126.146 332.157C133.235 339.895 144.197 343.764 154.721 343.691C172.479 343.691 184.976 331.354 185.268 313.98C185.561 296.46 185.999 183.164 185.049 175.28C183.222 160.242 171.018 147.54 149.386 147.54C131.627 147.54 119.13 159.877 118.838 177.251C118.838 178.565 118.838 179.879 118.838 181.193C118.838 193.165 118.838 205.21 118.838 217.182H118.911Z" fill="#1A1A35"/>
</svg>
